<?xml version="1.0" encoding="UTF-8"?>
<svg version="1.1" xmlns="http://www.w3.org/2000/svg" width="300" height="300">
<path d="M0 0 C0.63502441 0.23432739 1.27004883 0.46865479 1.92431641 0.71008301 C12.27338649 4.53616115 22.50751817 8.62072131 32.6875 12.875 C33.31709625 13.13682068 33.9466925 13.39864136 34.59536743 13.668396 C41.43080193 16.52031427 48.19014612 19.51705772 54.8515625 22.75390625 C55.9751416 23.29861572 57.0987207 23.8433252 58.25634766 24.40454102 C62.81881674 27.082512 65.48466089 30.11710498 67.1875 35.125 C68.0792616 40.64097699 68.16553238 45.99982262 65.5625 51.0625 C60.31546455 57.82841413 54.29143963 60.76012924 46.5625 64.0625 C45.49797607 64.52414551 44.43345215 64.98579102 43.33666992 65.46142578 C-14.24640476 90.10794126 -14.24640476 90.10794126 -29.25 90.4375 C-30.88775391 90.49357422 -30.88775391 90.49357422 -32.55859375 90.55078125 C-44.8620622 89.85473706 -57.18320867 83.84848869 -68.50683594 79.37182617 C-71.17360473 78.31799103 -73.84421862 77.2744372 -76.515625 76.23242188 C-87.05846604 72.10256426 -97.47962731 67.75506516 -107.8125 63.125 C-107.80139694 63.84052536 -107.79029388 64.55605072 -107.77885437 65.29325867 C-107.67854475 72.04629018 -107.60248117 78.79911292 -107.55343914 85.55272198 C-107.52737773 89.02464849 -107.49204613 92.49595792 -107.43530273 95.9675293 C-107.37043166 99.96148499 -107.34629138 103.95479558 -107.32421875 107.94921875 C-107.29841232 109.19209152 -107.2726059 110.43496429 -107.24601746 111.71549988 C-107.24289303 121.3192702 -107.24289303 121.3192702 -110.15942383 124.38598633 C-113.26742524 126.42319016 -115.08895745 127.125 -118.8125 127.125 C-122.78722063 125.59626129 -124.43103665 124.69719503 -126.8125 121.125 C-127.02759955 118.39486701 -127.12692733 115.76467896 -127.13476562 113.03271484 C-127.14469543 112.20792633 -127.15462524 111.38313782 -127.16485596 110.53335571 C-127.19409589 107.80084908 -127.20770523 105.06857498 -127.21875 102.3359375 C-127.23025708 100.43364456 -127.2417725 98.53135168 -127.2532959 96.62905884 C-127.27431757 92.63599569 -127.28600045 88.64301305 -127.29296875 84.64990234 C-127.30391245 79.54872089 -127.35190819 74.44861415 -127.40891266 69.34776878 C-127.44628916 65.4150591 -127.45658326 61.48260445 -127.4596405 57.54973221 C-127.46567135 55.67033668 -127.48165353 53.79094446 -127.50801086 51.91172409 C-127.74341401 33.83074794 -127.74341401 33.83074794 -122.57373047 27.69747925 C-119.76374618 25.18864122 -116.99829438 23.51011399 -113.546875 22.0234375 C-112.85422546 21.70176605 -112.16157593 21.3800946 -111.44793701 21.04867554 C-109.2490813 20.04133088 -107.03539623 19.07800013 -104.8125 18.125 C-104.09860107 17.81469849 -103.38470215 17.50439697 -102.64916992 17.18469238 C-97.48762428 14.95364635 -92.28326573 12.8379775 -87.0625 10.75 C-86.26955536 10.43061462 -85.47661072 10.11122925 -84.65963745 9.78216553 C-73.80119073 5.41118119 -62.89196978 1.20484746 -51.875 -2.75 C-50.73385742 -3.16040527 -49.59271484 -3.57081055 -48.41699219 -3.99365234 C-30.50755146 -10.29289159 -17.37338574 -6.45019359 0 0 Z " fill="#000000" transform="translate(229.8125,153.875)"/>
<path d="M0 0 C13.32531675 5.71419558 19.74601743 23.53649498 24.8359375 36.05615234 C28.80656733 46.21123471 31.1956564 56.72747395 33.4375 67.375 C33.70900879 68.65407227 33.98051758 69.93314453 34.26025391 71.25097656 C34.62449463 73.05646973 34.62449463 73.05646973 34.99609375 74.8984375 C35.32371704 76.51758057 35.32371704 76.51758057 35.65795898 78.16943359 C36 81 36 81 35 85 C8.27 85 -18.46 85 -46 85 C-47.04077646 80.83689416 -46.82949676 79.01718832 -45.99609375 74.8984375 C-45.75334717 73.69493652 -45.51060059 72.49143555 -45.26049805 71.25146484 C-44.85311401 69.33261475 -44.85311401 69.33261475 -44.4375 67.375 C-44.29962067 66.72106262 -44.16174133 66.06712524 -44.01968384 65.39337158 C-39.23760046 42.85513267 -32.24857379 15.56223801 -13 1 C-8.97811778 -1.01094111 -4.36301846 -0.59199708 0 0 Z " fill="#000000" transform="translate(143,2)"/>
<path d="M0 0 C23.1 0 46.2 0 70 0 C70 22.11 70 44.22 70 67 C46.9 67 23.8 67 0 67 C-4.7683338 47.92666482 -9.3619688 18.7239376 0 0 Z " fill="#000000" transform="translate(6,104)"/>
<path d="M0 0 C1.26263672 0.47566406 1.26263672 0.47566406 2.55078125 0.9609375 C5.26514801 1.98267107 7.98189933 2.99786711 10.69921875 4.01171875 C14.66789417 5.49447819 18.62570128 7.00415971 22.58203125 8.51953125 C24.92958192 9.40913283 27.2772385 10.29845497 29.625 11.1875 C30.73141846 11.61530762 31.83783691 12.04311523 32.9777832 12.48388672 C61.7246795 23.30609807 82.47425641 16.27949327 110 6 C110.88574707 5.67080566 111.77149414 5.34161133 112.68408203 5.00244141 C117.12862079 3.35031055 121.56760777 1.68444116 126 0 C126.62005505 30.69272513 126.62005505 30.69272513 117.52734375 40.60546875 C108.90572473 48.2451266 94.1624987 51.4596552 83 53 C82.30132812 53.10957031 81.60265625 53.21914063 80.8828125 53.33203125 C58.5635221 56.22813295 29.26779504 55.10658151 10 42 C2.8825131 35.81021973 0.74840066 28.15730816 0 19 C-0.10708484 15.6649283 -0.09581186 12.33631093 -0.0625 9 C-0.05798828 8.12988281 -0.05347656 7.25976562 -0.04882812 6.36328125 C-0.0371736 4.24215707 -0.01924357 2.1210689 0 0 Z " fill="#000000" transform="translate(137,242)"/>
<path d="M0 0 C28.38 0 56.76 0 86 0 C86.76896225 3.84481126 87.17748905 7.08719508 87.31640625 10.95703125 C87.35830078 12.06884766 87.40019531 13.18066406 87.44335938 14.32617188 C87.48267578 15.47666016 87.52199219 16.62714844 87.5625 17.8125 C87.60568359 18.98232422 87.64886719 20.15214844 87.69335938 21.35742188 C87.79918279 24.23817031 87.90126825 27.11900123 88 30 C79.63963663 33.55800411 71.20205201 36.83200067 62.6875 40 C51.83302401 44.07253291 41.07537788 48.35110043 30.375 52.8125 C29.40873184 53.21190796 29.40873184 53.21190796 28.42294312 53.61938477 C21.17891467 56.61955536 14.19429195 59.80706386 7.38916016 63.7097168 C4.98053724 65.01051101 2.55862826 66.03289435 0 67 C-2.35239899 62.30476462 -2.43881843 57.83088779 -2.625 52.6875 C-2.66222168 51.79667725 -2.69944336 50.90585449 -2.73779297 49.98803711 C-3.19352093 38.24516669 -3.09135937 26.55324867 -2.625 14.8125 C-2.59422363 13.91474854 -2.56344727 13.01699707 -2.53173828 12.09204102 C-2.49290527 11.24311279 -2.45407227 10.39418457 -2.4140625 9.51953125 C-2.3826416 8.76776611 -2.3512207 8.01600098 -2.31884766 7.24145508 C-2 5 -2 5 0 0 Z " fill="#000000" transform="translate(95,104)"/>
<path d="M0 0 C27.66112876 3.06953852 54.82685032 25.26652261 71.68554688 46.08105469 C79.12944303 55.86700897 87.56811857 67.84059285 90 80 C68.22 80 46.44 80 24 80 C21.525 67.625 21.525 67.625 19 55 C16.15521436 43.62085745 13.0607552 32.64521856 8.9375 21.6875 C8.46316528 20.42534668 8.46316528 20.42534668 7.97924805 19.13769531 C6.02424436 14.12959662 3.72542592 9.53069088 0.95532227 4.92114258 C0 3 0 3 0 0 Z " fill="#000000" transform="translate(173,7)"/>
<path d="M0 0 C-0.60176006 3.38704947 -2.041367 6.22157613 -3.5769043 9.27612305 C-14.6788473 31.50845567 -19.16360411 55.81802057 -24 80 C-45.45 80 -66.9 80 -89 80 C-89.33 79.34 -89.66 78.68 -90 78 C-88.9140895 75.44509391 -87.77016483 73.02443138 -86.5 70.5625 C-86.13197266 69.8411084 -85.76394531 69.1197168 -85.38476562 68.37646484 C-68.74247173 36.21616283 -40.95971149 12.65185734 -6.85546875 0.77734375 C-4 0 -4 0 0 0 Z " fill="#000000" transform="translate(102,7)"/>
<path d="M0 0 C1.27479721 -0.00960754 2.54959442 -0.01921509 3.86302185 -0.02911377 C5.26553164 -0.03396085 6.66804349 -0.0382399 8.07055664 -0.04199219 C9.49923201 -0.04774083 10.92790734 -0.0534986 12.35658264 -0.05926514 C15.35523845 -0.06978335 18.35386739 -0.07562075 21.35253906 -0.07910156 C25.20087098 -0.08459061 29.04884983 -0.10862349 32.89707088 -0.13707352 C35.84897408 -0.15566762 38.80079166 -0.16090373 41.75274849 -0.16243744 C43.17177831 -0.16547142 44.59080636 -0.17352498 46.00977898 -0.18662262 C47.99212569 -0.20361527 49.97461718 -0.19996794 51.95703125 -0.1953125 C53.08652695 -0.19895813 54.21602264 -0.20260376 55.37974548 -0.20635986 C56.25868973 -0.08508728 57.13763397 0.0361853 58.04321289 0.16113281 C60.16266776 3.34031511 60.61432233 5.28600222 61.29711914 9.00097656 C61.6190625 10.71897461 61.6190625 10.71897461 61.94750977 12.47167969 C62.27332031 14.26702148 62.27332031 14.26702148 62.60571289 16.09863281 C63.04367032 18.46207074 63.4824384 20.82535863 63.92211914 23.18847656 C64.11362549 24.23769287 64.30513184 25.28690918 64.50244141 26.36791992 C64.8080638 27.94653202 65.14266868 29.52197484 65.56991577 31.07209778 C66.06294821 33.24824039 66.16361706 35.15018282 66.15673828 37.37890625 C66.15662498 38.60972931 66.15662498 38.60972931 66.1565094 39.86541748 C66.15134811 40.74159729 66.14618683 41.6177771 66.14086914 42.52050781 C66.13945419 43.42488586 66.13803925 44.32926392 66.13658142 45.26104736 C66.130992 48.14444308 66.11844142 51.02776064 66.10571289 53.91113281 C66.10069652 55.86816294 66.09613386 57.82519429 66.09204102 59.78222656 C66.08102602 64.57522534 66.06376863 69.36816583 66.04321289 74.16113281 C43.68938942 70.16692059 21.05100972 47.60394038 8.35253906 30.02832031 C-5.81072454 9.46020659 -5.81072454 9.46020659 -6.95678711 1.16113281 C-5.15649977 -0.63915453 -2.42814574 0.01468892 0 0 Z " fill="#000000" transform="translate(18.956787109375,187.8388671875)"/>
<path d="M0 0 C8.96192395 -0.0462815 17.92380695 -0.0818478 26.8858242 -0.10362434 C31.04697253 -0.11407446 35.20803926 -0.12825592 39.36914062 -0.15087891 C43.38266429 -0.17256371 47.39610933 -0.18455937 51.40968704 -0.18975449 C52.94314436 -0.19345811 54.47659724 -0.20069011 56.01002121 -0.21146011 C58.15309801 -0.22591729 60.29584736 -0.2279804 62.43896484 -0.22705078 C64.27096939 -0.23371262 64.27096939 -0.23371262 66.13998413 -0.24050903 C69 0 69 0 71 2 C74.11279694 12.58065381 74.28953896 23.42596004 74.3125 34.375 C74.31781738 35.66510986 74.32313477 36.95521973 74.32861328 38.28442383 C74.2579938 47.6130093 74.2579938 47.6130093 72 51 C70.91283691 50.57702637 69.82567383 50.15405273 68.70556641 49.71826172 C64.58077757 48.11479985 60.45378018 46.51708683 56.32617188 44.92089844 C54.557032 44.23588441 52.78845464 43.54941542 51.02050781 42.86132812 C41.79779133 39.27296745 32.55999184 35.75904599 23.18359375 32.58984375 C22.46817413 32.34503265 21.75275452 32.10022156 21.01565552 31.84799194 C15.49553842 30.01883154 10.09286116 28.99580036 4.30859375 28.32421875 C2 28 2 28 1 27 C0.84174742 25.00217874 0.74880829 22.99911166 0.68359375 20.99609375 C0.64169922 19.78115234 0.59980469 18.56621094 0.55664062 17.31445312 C0.51732422 16.03505859 0.47800781 14.75566406 0.4375 13.4375 C0.39431641 12.15423828 0.35113281 10.87097656 0.30664062 9.54882812 C0.200152 6.36600147 0.09814038 3.18309326 0 0 Z " fill="#000000" transform="translate(199,104)"/>
</svg>
